<?xml version="1.0" encoding="UTF-8"?>
<svg id="Layer_1" data-name="Layer 1" xmlns="http://www.w3.org/2000/svg" version="1.1" viewBox="0 0 400 400">
  <defs>
    <style>
      .cls-1 {
        fill: #000;
      }

      .cls-1, .cls-2 {
        stroke-width: 0px;
      }

      .cls-2 {
        fill: #fff;
      }
    </style>
  </defs>
  <path class="cls-2" d="M191.8,120.6c-8-3.9-14-2.7-17.5,3.9-3.1,5.8-3,11.8.3,17.6,1.9,3.4,4.8,4.8,8.7,4.8,5.6,0,9.6-2.9,11.7-9.1,2-5.9,3.8-12-3.1-17.2Z"/>
  <path class="cls-2" d="M231.2,279.9c1.8-1.3,3.1-2.7,2.7-5.3-1.8-12.9-1.7-25.9,0-39.7h0s3-13.2,3-13.2c-2.4.6-4.4,1.1-6.3,1.6-14.1,3.6-28.2,4.2-42.5,1.6-21.7-4.1-43-10.1-64.6-15-4.8-1.1-9.5-2.2-14.8-3.5.9,13.7,3.8,26.3,5.3,39.1.9,7.4,5,12.1,11.5,15.1,21.4,9.9,43.3,18.9,65.7,26.4,14.5,4.9,27.9,2,40.1-7ZM208,264.2c1.4-9.4,2.3-18.8,2.8-28.2,0-1.2,0-2.3.3-3.5.3-1.8,1.2-3.2,3.3-2.9,2,.3,2,1.9,2.1,3.4.2,7.3-.5,14.6-1.4,21.8-1.1,8.6-2.5,17.1-4,25.6-.4,2.4-.6,5.9-5.1,3.6h0c-1.1-7,1.1-13.4,2.1-19.8Z"/>
  <path class="cls-2" d="M167.9,289.4c-16.4-6.1-32.4-13.1-48.2-20.6-2.6-1.2-4.2-.9-6,1.2-5.4,6.3-9.1,13.4-11.5,21.3-1.5,5,.1,7.5,4.3,10.1,9.7,5.9,20.3,10,30.6,14.6,4.1,1.8,8,2,12.1.4,2.8-1.1,5.5-2.4,8.9-4h0c4-2.1,8-4.2,11.4-7.1,4.5-4,3.6-14.1-1.5-16ZM143.8,313.5h0c-2.6-.7-2.9-2.5-2.9-4.4-.2-7.3-.5-14.6-.5-21.9s-.5-5.3,3-5.3c3.5,0,2.7,3.1,2.8,5.3.1,7.1.2,14.3.3,21.4,0,1.9.5,4.2-2.6,4.8Z"/>
  <path class="cls-2" d="M255.7,318c-10.7-7-14.7-18.5-19.1-30.2-8.1,5.4-16.1,10.1-25.6,11.3-9.6,1.2-18.7-1.3-28.4-3.8-.6,12.5-1,24.2-.8,36,.1,6.6,2.9,11.3,8.3,14.9,12.7,8.6,26,16.2,39.9,22.6,4.9,2.2,10,3.9,15.3,4.6,7.2,1,14.7,1,20.1-4.9,8.1-8.9,15.9-17.9,23.3-27.4,5.7-7.3,5.1-14.1-.7-22-10.6,4.5-21.2,5-32.3-1.1ZM252.4,368.5c-2.5.7-3.3-1.5-4-3.5-.6-1.7-1.3-3.4-2.1-5.5h0c-6.5-17.4-14.5-33.6-24.4-48.9-.6-1-1.3-1.9-1.9-2.9-1-1.7-2.7-3.6-.5-5.3,2.5-1.8,3.9.4,5.2,2.2,8.9,12.9,16.1,26.8,22.2,41.2,2.4,5.7,4.6,11.4,6.8,17.2.7,2,1.7,4.6-1.3,5.5Z"/>
  <path class="cls-2" d="M260.1,224.2c-7.6-6.1-11.7-4.7-14.3,4.5-3.9,13.8-4.4,27.8-2.2,42,1.8,11.2,4,22.3,10.5,31.9,5.2,7.7,12.4,11.5,21.8,9.7,9.7-1.8,15.9-7.7,18.6-17.3,1.7-6,.7-11.9-.6-18.6-1.7-7.7-4.7-14.9-8.5-21.7-6.6-11.7-15-22-25.4-30.5Z"/>
  <path class="cls-2" d="M99,122.4c-3.5.4-6.5,2-7.5,5.6-1.2,4.2-.2,7.9,3.2,10.8,4.9,4.2,10.9,2.2,12-4.2.4-2.1.1-4.3,0-7.3-1.3-3.6-3.8-5.5-7.6-5Z"/>
  <path class="cls-2" d="M98.6,211c-8.8,3.2-18.5,13.9-20.1,22-.8,4.4-.6,8.7,4.1,12.1h0c2.5,1.6,5.2,2.1,8.1,1.6,6.6-1.3,12.2-9.2,11.2-15.8-1-6.6-1.4-13.3-3.2-19.8Z"/>
  <path class="cls-2" d="M303.1,18.5c-3.4,0-6.8.9-8.2,4.5-1.8,4.4.7,7.3,4.5,10.2h0c1.3.4,2.5,1,3.8,1.1,5.4.6,12.1-4.7,11.1-8.8-.8-3.3-6.2-6.9-11.3-7Z"/>
  <path class="cls-2" d="M290.5,79.4c-3.7,10.7-7.3,21.4-10.9,32.2-.3,1-.3,2,1,3.3h0c4.8,2.4,8.5,5.7,10.5,10.8,7.2,18.1-7.1,36.4-26.7,34.1-12-1.4-18.4-8.5-18.7-20.6,0-2,0-4,0-6,.4-12.2,7.2-19.5,19.4-20.6,2.5-.2,3.9-.9,4.7-3.4,3.6-11.1,7.2-22.2,11.2-33.1,1.3-3.7.3-5.5-3-7-8.4-4.1-16.6-8.5-25-12.6-18.1-8.9-36.9-14.3-57.4-12.2-6.3.6-12.6,1-18.8,2-30.6,4.9-61,10.3-90.6,19.8-16.8,5.3-19.6,9.6-19.8,27-.3,25.5-.6,50.9,2.8,76.3,1.7,12.2,5,17,17,20.3,30,8.3,60.4,15,90.6,22.7,23.1,5.9,45.8,4.9,68.2-3.7,10.1-3.8,20.3-7.5,30.7-10.5,10.9-3.2,16.6-9.8,18.2-21.1,1.8-12.7,3.4-25.4,4.5-38.1,1.5-16.8,2.9-33.5,2.3-50.3-.2-6-3.1-9.4-9.1-10.9-.3.5-.9,1-1.1,1.6ZM112.5,141.5c-4,7.1-12.7,9.6-19.8,5.8-5.9-3.2-10.8-13.2-9.6-19.6,1.3-6.8,7.4-12,15.2-13.2,3.5-.5,6.6.4,9.8,2.4,7.3,6.6,9,16.6,4.4,24.7ZM204.2,133.5c-.2,1.3-.6,2.6-.9,4.3-3,9-8.1,15.3-17.6,16.9-7.1,1.1-12.8-1.2-17-7-6-8.4-5.4-23,1.2-30.9,5.3-6.3,14.8-8,23.3-4.2,7.9,3.5,12.1,11.6,10.9,21ZM234.6,134.4c-1.3,17.9-2.2,35.8-5.3,53.6-1.2,6.9-2.3,13.8-5.6,20.1-1,1.9-2,4.5-4.8,3.1-2.7-1.4-1.2-3.6-.3-5.6,4.3-9.5,5.4-19.9,6.8-30,3.2-22.9,3.5-46.1,5.1-69.6-.1-13.3.9-26.1-.8-38.9-.5-3.9-1.3-7.5-3.4-10.8-1-1.6-2-3.3.2-4.7,2.1-1.3,3.5.1,4.6,1.6,3.7,4.9,4.8,10.6,4.9,16.5.4,21.6,0,43.2-1.6,64.8Z"/>
  <path class="cls-2" d="M68.3,41.2c-.5-.4-1.1-.8-1.6-1.1-1.8-1-3.2-.1-4.2,1.3-1,1.4-.2,2.5.9,3.3,1.9,1.4,4.1,1.7,6,.6,1.9-1.2.3-2.5-1-4.1Z"/>
  <path class="cls-2" d="M278.9,148.3c5.1-4.1,7.6-12.3,5.6-18.5-1.7-5.4-7.6-9.2-15-9.5-7.9-.3-12.9,2.3-15.3,8.5-2.9,7.4-2.2,14.3,4,20.8h0c7,4.3,14.5,3.8,20.8-1.2ZM258.7,133.8c.4-3.6,1.6-6.5,3.5-9,1-1.4,2.4-2.5,4.2-1.3,1.9,1.1,1.6,2.7.6,4.3-3.6,5.6-3.6,11.5-1,17.5.7,1.7,1.4,3.8-.8,4.8-2.5,1.2-3.5-.8-4.4-2.7-2-4.1-2.6-8.5-2.1-13.4Z"/>
  <path class="cls-1" d="M308.9,9.7c-.3,0-.7-.1-1-.2-9.1-2.2-17.4.9-21.3,7.9-4,7.2-2.3,15.3,4.7,22,1,1,2.6,1.8,1.8,3.7-2.4,6.3-4.7,12.7-7.2,19.1-10.1-5-19.7-9.6-29.2-14.5-22.3-11.3-45.9-16.1-70.7-12.8-35.7,4.8-70.9,11.6-105.2,22.7-1.5.5-3.2,1.7-4.4-.5-.9-1.7-1.1-3.1.3-5,6.3-8.8,2.4-18.7-8.4-21.8-6.3-1.8-12.5,1.1-15.3,7.1-2.6,5.7-.7,12,5,15.5,1.7,1,3.6,1.6,5.4,2.4,4.5,2,5.7,7.3,2.1,10.2-6.4,5.2-8.4,12.1-8.8,19.9-1.4,26.6-.7,53.2,2.2,79.7.8,7.4,1.5,14.9,5.5,22h0c6.4,10.4,18.1,10.4,28,14.8-2.2,1.5-3.7,2.5-5.2,3.6-9.5,7.1-16.1,16.3-18.9,28-1.5,6.6.5,12.2,5.3,16.8,7.3,6.9,17.5,8,26.3,2.8,1.5-.9,2.6-2.7,4.7-2.3q4.9,8.5-.8,15.5c-6.2,7.7-10,16.5-12,26.1-1.2,5.7-.1,10.6,5.3,14.4,12.9,9.3,27.6,14.7,42.3,19.9,2.8,1,5.9.6,8.9-.1,6-1.5,11.6-4,17-7.1,1.8-1,3.4-2.7,6.2-2.2,0,6.2.3,12.3,1,18.4.7,6.4,2.8,11.9,8.5,15.6,5.7,3.7,11.2,7.9,17.1,11.3,14.9,8.5,29.4,17.9,46.9,20.1,10.9,1.4,21.1-.2,28.7-9.1,6.7-7.7,13-15.6,19.7-23.2,9.4-10.5,11.1-22,4.9-34.6-1.5-3.1-1-5.5.8-8.3,5.1-8,6.5-16.9,5.3-26.3-2.3-18.5-10.6-34.3-22.3-48.3-5.1-6-7.7-11.6-5.4-19.6,1.1-3.8,2.1-6.1,6-7.5,10.7-3.8,17.2-11.2,19.7-22.6,2-9.3,2.5-18.8,3.8-28.2,2.6-19.3,3.6-38.8,4.3-58.2.5-11.9-.8-23.2-13.9-28.8-2.4-1-1.8-2.9-1.2-4.6,1.7-4.7,3.7-9.3,5.2-14,1.1-3.5,2.8-5.3,6.8-5.9,9.2-1.3,16.5-9.8,16.6-18,0-7.4-6-13.7-15.3-16ZM63.4,44.7c-1.1-.8-2-1.9-.9-3.3,1.1-1.4,2.4-2.3,4.2-1.3.6.3,1.1.7,1.6,1.1,1.3,1.6,3,2.9,1,4.1-1.9,1.2-4.1.8-6-.6ZM90.7,246.7c-2.9.6-5.6,0-8.1-1.6h0c-4.7-3.5-4.9-7.7-4.1-12.1,1.6-8.1,11.2-18.8,20.1-22,1.9,6.5,2.2,13.3,3.2,19.8,1,6.7-4.6,14.6-11.2,15.8ZM169.4,305.4c-3.4,3-7.4,5-11.4,7.1h0c-3.4,1.6-6.1,2.8-8.9,4-4.1,1.6-8,1.4-12.1-.4-10.3-4.6-20.9-8.7-30.6-14.6-4.2-2.5-5.8-5-4.3-10.1,2.4-8,6.2-15,11.5-21.3,1.8-2.1,3.4-2.5,6-1.2,15.8,7.5,31.8,14.4,48.2,20.6,5.1,1.9,6,12.1,1.5,16ZM125.4,260.5c-6.5-3-10.6-7.7-11.5-15.1-1.5-12.8-4.3-25.4-5.3-39.1,5.3,1.2,10,2.4,14.8,3.5,21.5,4.9,42.8,10.9,64.6,15,14.3,2.7,28.4,2,42.5-1.6,1.9-.5,3.9-1,6.3-1.6l-3,13.2h0c-1.6,13.8-1.7,26.8,0,39.7.4,2.6-.9,4-2.7,5.3-12.2,9-25.6,11.9-40.1,7-22.4-7.5-44.3-16.5-65.7-26.4ZM288.6,341.1c-7.4,9.4-15.2,18.5-23.3,27.4-5.4,5.9-12.8,5.8-20.1,4.9-5.3-.7-10.4-2.3-15.3-4.6-13.9-6.4-27.2-14-39.9-22.6-5.4-3.6-8.2-8.3-8.3-14.9-.2-11.8.2-23.5.8-36,9.7,2.6,18.8,5,28.4,3.8,9.5-1.2,17.5-5.9,25.6-11.3,4.5,11.7,8.4,23.2,19.1,30.2,11.1,6.1,21.7,5.5,32.3,1.1,5.8,8,6.4,14.7.7,22ZM285.6,254.7c3.9,6.8,6.9,14,8.5,21.7,1.2,6.7,2.3,12.6.6,18.6-2.7,9.6-8.9,15.5-18.6,17.3-9.4,1.8-16.6-2.1-21.8-9.7-6.5-9.6-8.8-20.7-10.5-31.9-2.2-14.1-1.7-28.2,2.2-42,2.6-9.2,6.7-10.6,14.3-4.5,10.4,8.5,18.8,18.8,25.4,30.5ZM300.6,88.7c.6,16.8-.8,33.6-2.3,50.3-1.1,12.8-2.7,25.4-4.5,38.1-1.6,11.3-7.4,17.9-18.2,21.1-10.4,3-20.6,6.7-30.7,10.5-22.4,8.5-45.1,9.6-68.2,3.7-30.1-7.7-60.6-14.3-90.6-22.7-11.9-3.3-15.3-8.1-17-20.3-3.5-25.4-3.1-50.8-2.8-76.3.2-17.4,3.1-21.7,19.8-27,29.6-9.4,60-14.9,90.6-19.8,6.2-1,12.6-1.4,18.8-2,20.4-2.1,39.3,3.3,57.4,12.2,8.4,4.1,16.6,8.5,25,12.6,3.3,1.6,4.3,3.3,3,7-3.9,11-7.6,22-11.2,33.1-.8,2.5-2.3,3.2-4.7,3.4-12.2,1.1-18.9,8.3-19.4,20.6,0,2,0,4,0,6,.3,12.1,6.7,19.1,18.7,20.6,19.6,2.3,33.9-16,26.7-34.1-2-5.1-5.8-8.4-10.5-10.8h0c-1.3-1.3-1.3-2.3-1-3.3,3.6-10.7,7.3-21.4,10.9-32.2.2-.6.7-1.1,1.1-1.6,6,1.5,8.9,4.8,9.1,10.9ZM254.1,128.7c2.4-6.2,7.4-8.8,15.3-8.5,7.4.3,13.3,4.1,15,9.5,2,6.2-.5,14.4-5.6,18.5-6.3,5-13.7,5.5-20.8,1.2h0c-6.2-6.5-6.8-13.4-4-20.8ZM303.2,34.3c-1.3-.2-2.5-.7-3.8-1.1h0c-3.8-2.9-6.3-5.8-4.5-10.2,1.5-3.6,4.8-4.5,8.2-4.5,5.1,0,10.5,3.6,11.3,7,1,4.1-5.7,9.4-11.1,8.8Z"/>
  <path class="cls-1" d="M146.1,287.2c0-2.2.7-5.3-2.8-5.3-3.5,0-3,3.2-3,5.3,0,7.3.3,14.6.5,21.9,0,1.9.3,3.7,2.9,4.4h0c3.1-.7,2.6-2.9,2.6-4.8,0-7.1-.1-14.3-.3-21.4Z"/>
  <path class="cls-1" d="M231.2,53c-1.1-1.5-2.5-2.9-4.6-1.6-2.2,1.4-1.2,3.1-.2,4.7,2.1,3.3,2.9,7,3.4,10.8,1.7,12.8.7,25.6.8,38.9-1.6,23.5-1.9,46.7-5.1,69.6-1.4,10.2-2.5,20.5-6.8,30-.9,2-2.4,4.2.3,5.6,2.7,1.4,3.8-1.2,4.8-3.1,3.3-6.3,4.3-13.2,5.6-20.1,3.2-17.7,4-35.6,5.3-53.6,1.6-21.6,2-43.2,1.6-64.8-.1-5.8-1.3-11.6-4.9-16.5Z"/>
  <path class="cls-1" d="M265.1,149.9c2.2-1,1.6-3.1.8-4.8-2.6-6-2.6-11.8,1-17.5,1-1.6,1.3-3.1-.6-4.3-1.9-1.1-3.2,0-4.2,1.3-1.9,2.6-3.1,5.5-3.5,9-.6,4.9,0,9.3,2.1,13.4.9,1.9,1.9,3.9,4.4,2.7Z"/>
  <path class="cls-1" d="M193.3,112.5c-8.5-3.8-18-2.1-23.3,4.2-6.6,7.9-7.3,22.5-1.2,30.9,4.2,5.8,9.9,8.1,17,7,9.5-1.5,14.6-7.8,17.6-16.9.4-1.7.7-3,.9-4.3,1.2-9.4-3-17.5-10.9-21ZM194.9,137.8c-2.1,6.2-6,9-11.7,9.1-3.8,0-6.8-1.4-8.7-4.8-3.2-5.8-3.4-11.8-.3-17.6,3.5-6.6,9.6-7.8,17.5-3.9,6.9,5.2,5,11.3,3.1,17.2Z"/>
  <path class="cls-1" d="M108.1,116.8c-3.2-2-6.3-2.9-9.8-2.4-7.8,1.2-13.9,6.4-15.2,13.2-1.2,6.4,3.6,16.4,9.6,19.6,7.1,3.9,15.9,1.3,19.8-5.8,4.5-8.1,2.9-18.1-4.4-24.7ZM106.6,134.6c-1.1,6.3-7.1,8.4-12,4.2-3.3-2.9-4.4-6.6-3.2-10.8,1.1-3.6,4-5.2,7.5-5.6,3.8-.5,6.3,1.4,7.6,5,0,3,.3,5.2,0,7.3Z"/>
  <path class="cls-1" d="M205.9,284c4.6,2.4,4.7-1.2,5.1-3.6,1.5-8.5,2.9-17,4-25.6.9-7.2,1.6-14.5,1.4-21.8,0-1.5,0-3.1-2.1-3.4-2.1-.3-3,1.1-3.3,2.9-.2,1.1-.2,2.3-.3,3.5-.5,9.4-1.4,18.8-2.8,28.2-1,6.5-3.2,12.8-2.1,19.8h0Z"/>
  <path class="cls-1" d="M246.9,345.9c-6.1-14.4-13.3-28.3-22.2-41.2-1.2-1.8-2.7-4-5.2-2.2-2.2,1.6-.5,3.6.5,5.3.6,1,1.2,2,1.9,2.9,9.9,15.3,17.9,31.5,24.4,48.9h0c.8,2.1,1.5,3.8,2.1,5.5.7,2,1.5,4.2,4,3.5,2.9-.9,2-3.5,1.3-5.5-2.2-5.8-4.4-11.5-6.8-17.2Z"/>
</svg>